<svg width="68" height="55" viewBox="0 0 68 55" fill="none" xmlns="http://www.w3.org/2000/svg">
<path d="M67.17 4.48303C67.17 -0.596972 62.938 0.0240287 62.938 0.0240287C62.938 0.0240287 5.83205 4.73803 2.83805 5.14503C-0.155951 5.55203 0.00104837 9.53203 0.00104837 9.53203C0.00104837 9.53203 4.83679e-05 42.069 4.83679e-05 45.812C4.83679e-05 49.555 2.59905 49.565 2.59905 49.565L19.076 50.968L27.212 39.3C27.212 39.3 28.321 37.472 29.717 37.472C31.114 37.472 32.149 39.333 32.149 39.333L41.21 52.854C41.21 52.854 60.105 54.763 63.731 54.763C67.357 54.762 67.17 49.739 67.17 49.739C67.17 49.739 67.17 9.56303 67.17 4.48303ZM12.982 37.192C9.28405 37.192 6.28605 32.591 6.28605 26.917C6.28605 21.243 9.28405 16.642 12.982 16.642C16.68 16.642 19.678 21.243 19.678 26.917C19.678 32.591 16.68 37.192 12.982 37.192ZM49.14 38.618C44.4781 38.618 40.6991 33.379 40.6991 26.917C40.6991 20.454 44.479 15.215 49.14 15.215C53.802 15.215 57.5821 20.454 57.5821 26.917C57.5821 33.379 53.802 38.618 49.14 38.618Z" fill="#363636"/>
</svg>
