<svg width="10" height="10" viewBox="0 0 10 10" fill="none" xmlns="http://www.w3.org/2000/svg">
<g clip-path="url(#clip0)">
<path d="M9.86209 2.5217C9.79272 2.43991 9.69335 2.39316 9.58921 2.39316H7.65768V3.4188C7.65768 3.89008 7.25353 4.2735 6.75677 4.2735C6.26002 4.2735 5.85587 3.89008 5.85587 3.4188V2.39316H4.05407V3.4188C4.05407 3.89008 3.64993 4.2735 3.15317 4.2735C2.65641 4.2735 2.25227 3.89008 2.25227 3.4188V2.39316H0.320829C0.216595 2.39316 0.117225 2.43991 0.0478559 2.5217C-0.0216036 2.6035 -0.0544864 2.71256 -0.0425945 2.82145L0.605604 8.78461C0.617676 9.45692 1.14173 9.99999 1.78425 9.99999H8.12578C8.76822 9.99999 9.29227 9.45692 9.30443 8.78452L9.95263 2.82136C9.96443 2.71256 9.93155 2.6035 9.86209 2.5217Z" fill="#231F20"/>
<path d="M3.15321 3.76068C3.35195 3.76068 3.51357 3.60735 3.51357 3.4188V1.53846C3.51357 1.01051 4.07474 0.683761 4.59465 0.683761H5.49555C6.04276 0.683761 6.39645 1.01923 6.39645 1.53846V3.4188C6.39645 3.60735 6.55816 3.76068 6.75681 3.76068C6.95546 3.76068 7.11717 3.60735 7.11717 3.4188V1.53846C7.11717 0.647009 6.43519 0 5.49555 0H4.59465C3.60114 0 2.79285 0.690171 2.79285 1.53846V3.4188C2.79285 3.60735 2.95447 3.76068 3.15321 3.76068Z" fill="#231F20"/>
</g>
<defs>
<clipPath id="clip0">
<rect width="10" height="10" fill="white"/>
</clipPath>
</defs>
</svg>
